<svg version="1.1" id="Layer_1" xmlns="http://www.w3.org/2000/svg" xmlns:xlink="http://www.w3.org/1999/xlink" x="0px" y="0px"
	 width="100%" viewBox="0 0 574 325" enable-background="new 0 0 574 325" xml:space="preserve">
<path fill="#191818" opacity="1.000000" stroke="none" 
	d="
M1.000000,3.000000 
	C1.000000,3.000000 1.000000,2.500000 1.436299,2.435026 
	C191.505600,2.358564 381.138611,2.346708 570.771606,2.348161 
	C571.555115,2.348167 572.338623,2.538912 573.601013,2.702709 
	C573.601013,4.706180 573.601013,6.499150 573.601013,8.292120 
	C573.600952,112.107269 573.603210,215.922424 573.582764,319.737579 
	C573.582397,321.542236 573.309937,323.346832 572.686340,325.111511 
	C558.816101,325.107239 545.424011,325.142944 531.571777,325.106964 
	C418.032532,325.025452 304.953369,325.024719 191.874191,325.002258 
	C128.590714,324.989655 65.307236,324.941010 1.970309,324.449158 
	C1.905798,219.571808 1.901071,115.153877 1.846754,10.735958 
	C1.845412,8.157159 1.294562,5.578646 1.000000,3.000000 
M447.447632,138.467865 
	C446.630341,141.643814 445.813049,144.819778 444.280518,148.005035 
	C443.803589,148.011215 443.326630,148.017395 442.400177,147.444077 
	C441.053375,143.526718 439.645844,139.629028 438.370544,135.688538 
	C433.407074,120.351952 433.422699,120.346901 416.566132,121.269714 
	C414.296539,121.269714 412.026978,121.269714 409.757385,121.269714 
	C409.797150,121.526939 409.836914,121.784164 409.876678,122.041389 
	C411.789398,122.782639 413.702148,123.523895 414.333466,124.682762 
	C413.900421,124.802353 413.467377,124.921936 412.258698,124.987740 
	C410.449951,124.781563 408.641205,124.575386 406.832458,124.369202 
	C406.831848,124.916153 406.831238,125.463097 406.830627,126.010048 
	C408.878082,126.010048 410.925537,126.010048 413.278168,126.631096 
	C413.536896,127.739212 413.795624,128.847321 414.013336,130.900711 
	C414.013336,145.773270 414.013336,160.645844 414.013336,175.358032 
	C410.630920,175.916641 408.681946,176.238525 406.732941,176.560410 
	C406.774506,177.032028 406.816101,177.503662 406.857697,177.975281 
	C410.908813,177.975281 414.967072,178.105515 419.006165,177.884949 
	C420.033356,177.828827 420.999634,176.658035 422.686584,175.979218 
	C423.460052,175.321991 424.233521,174.664780 425.839050,174.010117 
	C427.226837,174.005722 428.614655,174.001343 430.327820,174.647125 
	C433.642670,178.139862 435.700714,177.954422 438.698883,173.758972 
	C439.690308,173.107651 441.293854,172.649399 441.570374,171.772629 
	C442.997589,167.247116 444.084900,162.614395 445.948639,157.797623 
	C446.753693,155.533463 447.558746,153.269302 448.363800,151.005142 
	C448.015717,150.898849 447.667664,150.792557 447.319580,150.686264 
	C446.368042,151.524475 445.416534,152.362686 444.292328,153.027328 
	C444.292328,153.027328 444.357117,152.791199 444.711243,151.874023 
	C444.809021,150.584152 444.906799,149.294296 445.678436,148.002197 
	C446.331085,147.971603 446.983704,147.941010 447.237152,147.929138 
	C447.501373,144.529526 447.754913,141.267319 448.486786,137.553574 
	C448.661285,136.705734 448.835754,135.857895 449.410278,134.728378 
	C450.210052,134.828140 451.009796,134.927902 451.864166,135.479416 
	C451.864166,135.479416 451.899445,135.933090 451.360413,136.048920 
	C451.204773,136.706970 451.049164,137.365036 450.900696,138.482010 
	C450.900696,138.482010 450.891205,138.940903 450.260651,139.134872 
	C447.947205,141.766754 449.755157,142.951202 451.984833,144.931717 
	C451.998444,152.557327 452.258728,160.194366 451.906403,167.803024 
	C451.761963,170.920944 450.294281,173.977585 449.517090,176.746796 
	C456.182861,176.746796 463.869049,176.746796 471.259979,176.746796 
	C469.903107,175.663559 468.478455,174.526245 467.884399,173.225540 
	C469.145752,173.141846 470.407135,173.058151 470.925659,173.023758 
	C470.925659,155.577286 470.925659,138.543320 470.925659,121.196548 
	C466.128601,121.196548 461.829010,121.035973 457.559448,121.322723 
	C456.628815,121.385223 455.805603,123.047325 454.309387,124.055023 
	C453.564178,124.712868 452.818939,125.370712 451.354462,126.200386 
	C450.566620,129.131790 449.778809,132.063187 448.507538,135.441589 
	C448.334869,136.290939 448.162201,137.140274 447.447632,138.467865 
M155.918503,126.434250 
	C153.270828,121.589668 150.670288,125.251282 147.599945,127.085564 
	C147.373596,127.199341 147.147247,127.313110 146.732010,127.239517 
	C146.444427,127.143402 146.219803,127.224800 145.353714,127.531303 
	C144.923218,127.721344 144.492722,127.911385 143.283798,128.051498 
	C137.057312,130.632385 130.554291,131.558151 122.989304,131.247772 
	C120.419731,131.247772 117.850151,131.247772 115.280579,131.247772 
	C115.249435,131.680664 115.218300,132.113541 115.187157,132.546432 
	C116.461693,133.108475 117.736221,133.670532 118.147667,133.851974 
	C116.385765,137.260925 114.646187,140.626709 112.085785,144.010452 
	C111.068634,144.806900 109.241356,145.540192 109.173485,146.410645 
	C108.867149,150.339645 108.867653,154.322876 109.184143,158.252213 
	C109.283127,159.481186 110.718140,160.602539 111.541595,161.773163 
	C111.992813,161.621674 112.444038,161.470200 112.895264,161.318710 
	C112.895264,157.791000 112.895264,154.263275 112.996056,149.821472 
	C114.760849,146.562164 116.811340,147.016022 117.630272,150.107712 
	C118.546204,153.565567 118.975266,157.341797 118.617096,160.878296 
	C118.394127,163.079773 116.319519,165.093719 114.592262,168.007843 
	C116.256493,168.333267 118.711395,169.605927 120.650322,169.056793 
	C129.593094,166.524017 138.501144,166.157379 147.619873,167.771912 
	C151.694687,168.493393 155.874451,168.622223 160.710236,169.083206 
	C161.161957,169.011353 161.613678,168.939484 162.203705,169.561768 
	C165.539246,175.224915 175.306747,177.536713 180.172104,174.113541 
	C182.005417,172.823639 184.457794,171.774597 186.648758,171.733871 
	C203.035019,171.429169 219.428162,171.495499 235.814484,171.192459 
	C238.219681,171.147980 240.600143,169.765381 243.768448,169.051300 
	C244.798523,169.091507 245.828613,169.131729 247.500427,169.663757 
	C250.339966,169.418289 253.179504,169.172821 256.815948,169.032333 
	C258.509918,168.650665 260.203888,168.268982 261.219116,168.040222 
	C260.822968,164.753769 260.268219,162.004761 260.204224,159.244400 
	C260.060486,153.043884 255.674606,146.314575 251.039459,145.426697 
	C251.039459,145.426697 250.947632,145.363388 251.564194,145.346893 
	C251.369019,144.869888 251.173843,144.392883 250.956482,143.982941 
	C250.956482,143.982941 251.025146,143.999466 250.675873,143.428299 
	C244.906097,138.284760 238.636597,135.688492 230.428436,135.917038 
	C211.390533,136.447098 192.319077,135.934326 173.264587,135.631714 
	C165.124603,135.502441 165.132309,135.260666 163.623138,127.310585 
	C163.599289,127.184944 163.051971,127.158676 162.024109,126.912262 
	C162.257874,129.874664 162.474060,132.614441 162.796082,136.695206 
	C159.410049,135.249130 156.994156,134.217361 154.897614,132.414383 
	C154.895889,131.588791 154.894165,130.763184 154.976379,129.472809 
	C154.976379,129.472809 154.968109,129.000580 155.442932,128.738678 
	C155.593414,128.227463 155.743896,127.716248 155.918503,126.434250 
M330.551544,136.447968 
	C331.362122,137.970215 332.172699,139.492462 332.715118,141.603119 
	C332.574768,142.933197 331.992767,144.412064 332.380859,145.564148 
	C333.358826,148.467575 335.028870,151.142044 335.962494,154.055405 
	C338.088715,160.690247 339.727478,167.489319 342.073456,174.039307 
	C342.569031,175.422913 345.150970,176.522186 346.939423,176.857590 
	C348.978607,177.240005 351.916168,177.892288 352.820770,173.954788 
	C354.031342,173.022583 355.856110,172.327454 356.326233,171.109421 
	C357.345947,168.467606 357.673126,165.558472 358.202087,163.007263 
	C358.202087,163.007263 358.078705,162.858459 358.078705,162.858459 
	C358.078705,162.858459 358.229889,162.934448 357.460114,163.403458 
	C356.904846,162.587601 356.098785,161.845886 355.832336,160.944641 
	C352.366333,149.220810 349.054230,137.450607 345.472504,125.762840 
	C345.011932,124.259979 343.444427,122.385933 342.050842,122.036972 
	C339.637054,121.432556 336.589050,121.175865 335.243195,125.059647 
	C333.831726,128.718643 332.420258,132.377625 330.551544,136.447968 
M316.913055,121.292770 
	C311.652924,121.277481 306.392761,121.262184 300.527985,120.975731 
	C299.612915,121.063072 298.697815,121.150414 297.049316,121.307762 
	C298.886139,122.139481 299.913635,122.604729 301.158417,123.503410 
	C301.158417,123.503410 301.178101,123.987854 300.426819,124.017593 
	C299.200562,124.256767 297.974335,124.495941 296.934570,124.698746 
	C301.446136,140.747131 305.755371,156.389206 310.333832,171.952057 
	C310.885010,173.825638 312.646576,176.287140 314.283691,176.686478 
	C317.068787,177.365814 320.814240,178.132050 322.847473,173.473328 
	C326.129700,171.784821 327.515289,167.156738 326.361694,162.675629 
	C323.604980,151.967285 320.881348,141.248230 318.365631,130.481796 
	C317.823334,128.161057 318.213654,125.622398 318.849731,123.035103 
	C320.030823,122.578903 321.211884,122.122711 322.392975,121.666512 
	C322.328156,121.471649 322.263367,121.276794 322.198547,121.081932 
	C320.740295,121.171768 319.282013,121.261612 316.913055,121.292770 
M383.558777,124.975060 
	C382.324158,125.126648 381.089539,125.278236 380.688751,125.327446 
	C380.873383,146.877441 381.943390,167.935272 379.458466,189.568741 
	C379.029541,189.822372 378.600616,190.076019 378.151367,190.341675 
	C388.506104,193.328659 399.009766,185.608353 399.222412,174.437195 
	C399.495087,160.113632 399.251251,145.780838 399.342621,131.452744 
	C399.362823,128.282776 399.854492,125.115829 400.131348,121.921051 
	C394.723267,121.921051 389.134613,121.921051 383.375946,121.921051 
	C383.754761,123.091743 384.050934,124.006996 383.558777,124.975060 
M277.097473,121.747017 
	C277.097473,142.209320 277.097473,162.671616 277.097473,183.133926 
	C277.573608,183.121262 278.049774,183.108597 278.525909,183.095947 
	C278.525909,160.645920 278.525909,138.195877 278.525909,115.745850 
	C278.050781,115.742416 277.575684,115.738983 277.100555,115.735550 
	C277.100555,117.433296 277.100555,119.131050 277.097473,121.747017 
M382.439423,208.832458 
	C384.488617,205.701218 384.618927,202.411972 382.074127,199.709885 
	C378.671295,196.096741 374.292511,197.456909 370.047699,197.840729 
	C370.047699,202.444901 370.047699,206.677643 370.047699,212.317429 
	C374.341064,211.272873 378.139893,210.348633 382.439423,208.832458 
M214.984116,198.525726 
	C214.984116,202.823151 214.984116,207.120590 214.984116,211.418015 
	C215.617783,211.434845 216.251465,211.451660 216.885132,211.468491 
	C217.173340,208.923004 217.461533,206.377518 217.829956,203.123489 
	C220.960541,206.391510 223.595001,209.141647 226.830521,212.519211 
	C226.830521,206.480957 226.830521,202.022522 226.830521,197.564072 
	C226.337402,197.540298 225.844284,197.516510 225.351166,197.492737 
	C225.025208,200.025986 224.699249,202.559235 224.268204,205.909256 
	C222.548355,203.860016 221.544662,202.331314 220.218048,201.172226 
	C218.740356,199.881134 216.968857,198.926331 214.984116,198.525726 
M414.877533,209.596848 
	C414.636810,207.316574 413.754303,204.870789 414.290649,202.790909 
	C415.366760,198.618027 413.189178,197.724884 409.996246,197.497421 
	C407.744324,197.336960 405.471771,197.466385 403.071014,197.466385 
	C403.071014,202.367004 403.071014,206.755753 403.071014,212.019913 
	C407.079468,211.347321 410.718323,210.736755 414.877533,209.596848 
M262.347412,204.928757 
	C259.932831,202.321915 257.518250,199.715073 254.466492,196.420334 
	C254.466492,202.460968 254.466492,206.889786 254.466492,211.318604 
	C254.907883,211.355148 255.349274,211.391678 255.790665,211.428223 
	C256.141266,208.811554 256.491882,206.194885 256.920441,202.996521 
	C259.996368,206.358658 262.506226,209.102051 265.626892,212.513092 
	C265.626892,206.523666 265.626892,202.062119 265.626892,197.600571 
	C265.176636,197.593094 264.726410,197.585617 264.276154,197.578140 
	C263.907532,200.040344 263.538879,202.502533 262.347412,204.928757 
M364.157745,207.371353 
	C364.545135,204.671799 365.991394,200.101990 365.127380,199.612808 
	C362.180969,197.944641 358.420990,197.713455 355.234619,196.993317 
	C355.234619,202.716370 355.234619,207.058517 355.234619,211.400650 
	C358.005432,205.979568 360.379089,206.018951 363.277710,210.737595 
	C363.560516,211.197983 364.874146,211.025146 366.288391,211.230209 
	C365.436523,209.777603 364.941986,208.934265 364.157745,207.371353 
M350.118286,200.711014 
	C349.178619,199.796188 348.224091,198.092651 347.302032,198.110062 
	C344.166168,198.169266 340.349762,197.915359 338.142090,199.575119 
	C336.512177,200.800507 336.088989,205.055588 336.732239,207.546570 
	C337.701294,211.299484 341.391357,211.898697 344.952209,211.467087 
	C349.781372,210.881775 351.746765,207.253998 350.118286,200.711014 
M434.251862,207.500168 
	C436.538330,206.409515 438.824829,205.318848 442.388916,203.618759 
	C438.808716,203.172760 436.628448,202.901154 434.114899,202.588043 
	C434.795319,197.178177 440.018372,201.139496 442.091248,197.951538 
	C438.465454,197.951538 435.176880,197.951538 431.659760,197.951538 
	C431.659760,202.366486 431.659760,206.738098 431.659760,211.018555 
	C435.347748,211.018555 438.663757,211.018555 441.979736,211.018555 
	C442.017273,210.639923 442.054840,210.261292 442.092407,209.882660 
	C439.518646,209.403625 436.944916,208.924591 434.251862,207.500168 
M388.034607,204.411026 
	C387.179718,206.611679 386.324829,208.812332 385.269104,211.529968 
	C388.312531,210.147934 390.559692,208.327530 392.800018,208.335876 
	C395.025635,208.344177 397.244354,210.191849 400.558075,211.744553 
	C399.119415,208.543365 398.246521,206.147064 397.003693,203.961060 
	C395.715790,201.695801 394.069397,199.634399 392.579773,197.483826 
	C391.176392,199.573929 389.773010,201.664032 388.034607,204.411026 
M238.484039,205.769455 
	C237.796631,207.514420 237.109222,209.259369 236.421814,211.004333 
	C236.647232,211.459839 236.872650,211.915359 237.098053,212.370865 
	C241.462646,205.636887 246.110672,207.719025 250.965027,211.428894 
	C250.259293,208.697952 249.495422,206.712906 248.434433,204.901947 
	C246.943008,202.356293 245.230988,199.939865 243.613312,197.468185 
	C242.007080,200.014633 240.400848,202.561066 238.484039,205.769455 
M203.777908,208.110474 
	C206.453552,209.075470 209.129211,210.040466 212.369461,211.209091 
	C210.490143,206.950653 209.027679,203.107498 207.055176,199.546906 
	C206.574341,198.678940 203.346146,198.171371 203.195129,198.457031 
	C201.043625,202.526962 199.204193,206.761887 197.289444,210.957001 
	C197.670700,211.179245 198.051971,211.401489 198.433243,211.623734 
	C199.949234,210.454681 201.465225,209.285629 203.777908,208.110474 
M297.975037,198.624832 
	C296.182983,202.737595 294.390961,206.850372 292.598938,210.963150 
	C292.841705,211.337250 293.084503,211.711334 293.327301,212.085434 
	C297.761566,206.442398 302.265869,206.876358 307.077484,211.651657 
	C305.619141,206.866623 303.990784,202.802322 301.961456,198.949219 
	C301.575165,198.215790 299.603119,198.317551 297.975037,198.624832 
M271.894562,197.581451 
	C271.417053,202.022766 270.939545,206.464096 270.422668,211.271469 
	C273.842987,211.271469 276.485382,211.545807 279.046753,211.207321 
	C282.910278,210.696732 284.834595,208.024170 284.770966,204.280136 
	C284.706635,200.492798 282.560394,198.087097 278.724487,197.602173 
	C276.767426,197.354752 274.759552,197.509674 271.894562,197.581451 
M189.965942,205.421295 
	C191.413605,205.277222 192.861267,205.133163 194.308929,204.989105 
	C194.306976,204.495163 194.305023,204.001236 194.303070,203.507309 
	C192.195969,203.249023 190.088867,202.990753 187.869156,202.718674 
	C187.775131,196.738174 193.779984,201.369278 195.415085,197.805786 
	C191.811508,197.805786 188.599838,197.805786 185.220276,197.805786 
	C185.220276,202.328232 185.220276,206.710617 185.220276,210.951447 
	C188.843292,210.951447 192.161911,210.951447 195.480530,210.951447 
	C195.498550,210.513977 195.516556,210.076508 195.534576,209.639038 
	C193.700256,209.505661 191.855194,209.455521 190.033920,209.220871 
	C186.685349,208.789398 186.951340,207.356598 189.965942,205.421295 
M311.681824,211.415588 
	C312.366455,209.753830 313.051086,208.092087 313.619904,206.711395 
	C315.753815,206.251129 317.707977,205.829636 319.662140,205.408127 
	C319.597748,204.979813 319.533356,204.551498 319.468964,204.123184 
	C317.404938,203.910614 315.340942,203.698044 313.203217,203.477890 
	C311.844879,196.388382 318.862640,201.458908 320.451294,197.929993 
	C316.968719,197.929993 313.693756,197.929993 309.524445,197.929993 
	C309.996490,202.457535 310.459381,206.897278 311.681824,211.415588 
M166.418686,208.241394 
	C163.481171,209.874008 160.227097,209.723923 159.340027,206.472702 
	C156.785721,197.110687 164.943771,200.965988 169.965164,199.949829 
	C165.404144,196.508987 161.713486,196.314819 158.400131,198.924286 
	C155.235931,201.416306 155.099777,205.023590 157.052429,208.405060 
	C159.181152,212.091476 162.793594,211.991135 166.341003,211.201599 
	C168.602112,210.698364 168.667007,210.066132 166.418686,208.241394 
M325.190338,197.603836 
	C322.955383,200.455215 322.849670,207.964783 325.405243,211.888077 
	C325.996399,209.731934 326.466705,208.016434 326.906250,206.413254 
	C329.154297,206.146957 331.090698,205.917587 333.027100,205.688202 
	C333.003448,205.240524 332.979797,204.792862 332.956146,204.345184 
	C331.793121,204.182770 330.549713,204.223206 329.488922,203.802872 
	C328.348358,203.350983 327.379059,202.466721 326.335052,201.771103 
	C327.453125,200.962753 328.470245,199.876419 329.717377,199.423508 
	C330.989716,198.961426 332.488098,199.121765 333.887482,199.009613 
	C333.845367,198.528763 333.803223,198.047928 333.761078,197.567078 
	C331.186676,197.567078 328.612274,197.567078 325.190338,197.603836 
M427.577576,211.341202 
	C427.482635,210.682175 427.459045,209.471741 427.281799,209.448807 
	C425.358765,209.199921 423.411560,209.137405 420.605957,208.973495 
	C420.605957,204.898529 420.605957,201.217224 420.605957,197.535919 
	C420.158051,197.573532 419.710114,197.611130 419.262207,197.648727 
	C419.262207,202.134201 419.262207,206.619659 419.262207,211.397949 
	C421.824707,211.397949 424.299255,211.397949 427.577576,211.341202 
M174.730011,211.608521 
	C177.234756,211.488449 179.739502,211.368378 182.244247,211.248306 
	C182.205200,210.704926 182.166138,210.161560 182.127075,209.618179 
	C179.832764,209.296036 177.538437,208.973877 175.724518,208.719177 
	C173.988220,204.863770 176.742401,200.488968 172.759781,197.546326 
	C172.011536,201.317169 171.883713,205.017181 172.096466,208.697510 
	C172.153564,209.685165 173.248062,210.612869 174.730011,211.608521 
M473.899323,173.461227 
	C474.576538,173.567047 475.253754,173.672867 475.930939,173.778687 
	C475.943665,173.558350 475.956360,173.337997 475.969055,173.117661 
	C475.402252,173.117661 474.835419,173.117661 473.899323,173.461227 
z"/>
<path fill="#EFF3F6" opacity="1.000000" stroke="none" 
	d="
M573.164429,325.151459 
	C573.309937,323.346832 573.582397,321.542236 573.582764,319.737579 
	C573.603210,215.922424 573.600952,112.107269 573.601013,8.292120 
	C573.601013,6.499150 573.601013,4.706180 573.601013,2.702709 
	C572.338623,2.538912 571.555115,2.348167 570.771606,2.348161 
	C381.138611,2.346708 191.505600,2.358564 1.436299,2.185026 
	C1.166389,1.666667 1.315361,1.056180 1.501962,1.044454 
	C2.829314,0.961038 4.164356,1.000000 5.496950,1.000000 
	C195.225021,1.000000 384.953094,1.000000 575.000000,1.000000 
	C575.000000,3.049485 575.000000,5.113503 575.000000,7.177522 
	C575.000000,111.952721 575.004150,216.727921 574.958496,321.503082 
	C574.957825,323.002197 574.333313,324.501038 573.659668,325.810852 
	C573.319275,325.621674 573.164429,325.151459 573.164429,325.151459 
z"/>
<path fill="#656667" opacity="1.000000" stroke="none" 
	d="
M2.023763,324.908600 
	C65.307236,324.941010 128.590714,324.989655 191.874191,325.002258 
	C304.953369,325.024719 418.032532,325.025452 531.562988,325.312134 
	C532.014221,325.589050 532.000000,326.000000 532.000000,326.000000 
	C355.641754,326.000000 179.283524,326.000000 2.459703,325.726929 
	C2.004008,325.272125 2.013885,325.090363 2.023763,324.908600 
z"/>
<path fill="#5A5A5B" opacity="1.000000" stroke="none" 
	d="
M1.970309,324.449158 
	C2.013885,325.090363 2.004008,325.272125 1.997068,325.726929 
	C1.666672,324.502472 1.042507,323.005127 1.041650,321.507416 
	C0.994691,239.451813 1.000000,157.396194 1.000000,75.340569 
	C1.000000,51.539482 1.000000,27.738400 1.000000,3.468657 
	C1.294562,5.578646 1.845412,8.157159 1.846754,10.735958 
	C1.901071,115.153877 1.905798,219.571808 1.970309,324.449158 
z"/>
<path fill="#737476" opacity="1.000000" stroke="none" 
	d="
M532.468628,326.000000 
	C532.000000,326.000000 532.014221,325.589050 532.023071,325.383850 
	C545.424011,325.142944 558.816101,325.107239 572.686340,325.111511 
	C573.164429,325.151459 573.319275,325.621674 573.159668,325.810852 
	C559.645752,326.000000 546.291565,326.000000 532.468628,326.000000 
z"/>
<path fill="#D1D2F4" opacity="1.000000" stroke="none" 
	d="
M154.578247,133.185593 
	C156.994156,134.217361 159.410049,135.249130 162.796082,136.695206 
	C162.474060,132.614441 162.257874,129.874664 162.024109,126.912262 
	C163.051971,127.158676 163.599289,127.184944 163.623138,127.310585 
	C165.132309,135.260666 165.124603,135.502441 173.264587,135.631714 
	C192.319077,135.934326 211.390533,136.447098 230.428436,135.917038 
	C238.636597,135.688492 244.906097,138.284760 250.487183,143.976562 
	C248.547562,144.163757 246.805023,143.753998 245.044052,143.451248 
	C240.726013,142.708862 236.399460,142.015823 232.076340,141.302933 
	C237.489624,148.575836 244.346756,146.471573 251.018723,145.536255 
	C255.674606,146.314575 260.060486,153.043884 260.204224,159.244400 
	C260.268219,162.004761 260.822968,164.753769 261.219116,168.040222 
	C260.203888,168.268982 258.509918,168.650665 256.291534,168.673065 
	C255.544205,167.260376 255.321304,166.206985 255.015152,164.760208 
	C253.544876,164.903992 251.755096,165.079010 249.575470,165.226547 
	C246.868668,165.354141 244.551743,165.509216 242.151550,165.291260 
	C241.638397,163.923370 241.208481,162.928528 240.778580,161.933685 
	C240.457230,163.207138 240.135880,164.480576 239.512726,165.763519 
	C238.812973,165.815918 238.414993,165.858810 237.766815,165.754913 
	C237.131454,165.587814 236.746292,165.567535 236.457123,165.136353 
	C237.187958,161.281647 234.818420,162.094009 232.985275,162.245422 
	C231.038071,162.406296 229.098389,162.658203 227.119537,162.539062 
	C227.716919,161.772568 228.350174,161.337402 229.379074,160.965729 
	C231.308914,160.929016 232.843140,160.828796 234.377350,160.728577 
	C234.355011,160.286758 234.332657,159.844925 234.310318,159.403107 
	C232.524948,159.521835 230.739578,159.640579 228.513184,159.672211 
	C225.381744,159.725021 222.691330,159.864914 219.718506,159.971542 
	C219.138733,160.258759 218.841370,160.579239 218.544006,160.899719 
	C219.044891,161.168472 219.545761,161.437225 220.302673,161.903503 
	C220.658264,162.711090 220.757843,163.321167 220.465958,163.958313 
	C218.959274,165.353973 217.844055,166.722595 216.114090,168.845612 
	C223.321747,168.845612 229.148865,168.845612 235.416107,168.918884 
	C238.234863,168.995422 240.613449,168.998657 242.992050,169.001907 
	C240.600143,169.765381 238.219681,171.147980 235.814484,171.192459 
	C219.428162,171.495499 203.035019,171.429169 186.648758,171.733871 
	C184.457794,171.774597 182.005417,172.823639 180.172104,174.113541 
	C175.306747,177.536713 165.539246,175.224915 162.211151,168.956772 
	C162.462845,167.906296 162.707123,167.460800 163.127716,167.310730 
	C165.304337,169.035141 167.661179,171.909561 169.214493,171.526398 
	C171.145309,171.050125 173.416534,168.036499 173.754990,165.843140 
	C174.445160,161.370499 174.546326,156.608200 173.775208,152.158432 
	C172.779129,146.410416 169.636215,145.145950 163.692047,146.916595 
	C166.055283,144.286728 168.778931,141.901245 171.502579,139.515762 
	C171.377930,139.209122 171.253265,138.902481 171.128616,138.595840 
	C168.420609,139.731476 165.712601,140.867111 162.696747,141.877777 
	C158.121155,140.939255 159.261597,144.755463 158.655243,146.572098 
	C157.532684,149.935226 155.403275,155.449677 156.767365,156.691620 
	C160.953323,160.502762 159.626617,164.788727 160.006577,169.020004 
	C155.874451,168.622223 151.694687,168.493393 147.619873,167.771912 
	C138.501144,166.157379 129.593094,166.524017 120.650322,169.056793 
	C118.711395,169.605927 116.256493,168.333267 114.592262,168.007843 
	C116.319519,165.093719 118.394127,163.079773 118.617096,160.878296 
	C118.975266,157.341797 118.546204,153.565567 117.630272,150.107712 
	C116.811340,147.016022 114.760849,146.562164 112.633041,150.180420 
	C112.482216,148.357071 112.694412,146.174774 112.906601,143.992477 
	C114.646187,140.626709 116.385765,137.260925 118.147667,133.851974 
	C117.736221,133.670532 116.461693,133.108475 115.187157,132.546432 
	C115.218300,132.113541 115.249435,131.680664 115.280579,131.247772 
	C117.850151,131.247772 120.419731,131.247772 123.547081,131.615692 
	C126.506935,132.535294 128.909012,133.086990 131.619720,133.635269 
	C132.751770,133.086288 133.575165,132.540726 134.746674,132.021820 
	C137.770096,134.399200 140.414841,133.783722 142.923248,132.281921 
	C142.941116,133.356842 143.082916,134.116394 143.224731,134.875946 
	C143.754654,134.655762 144.284561,134.435562 144.814484,134.215363 
	C144.205154,133.481613 143.595825,132.747864 142.957657,131.668106 
	C143.306610,130.248550 143.684418,129.174988 144.062225,128.101425 
	C144.492722,127.911385 144.923218,127.721344 145.933701,127.676804 
	C146.649429,127.690491 146.785172,127.558685 146.920898,127.426888 
	C147.147247,127.313110 147.373596,127.199341 148.017944,127.185043 
	C149.289047,127.492485 150.142136,127.700439 151.164963,128.241928 
	C152.545837,128.717178 153.756973,128.858871 154.968109,129.000580 
	C154.968109,129.000580 154.976379,129.472809 154.614120,129.784912 
	C154.360657,131.126526 154.469452,132.156067 154.578247,133.185593 
M215.749435,145.154816 
	C209.623901,141.229172 202.880173,141.541565 195.396378,142.068420 
	C194.711426,142.682434 194.026459,143.296432 193.341507,143.910446 
	C194.589478,144.827072 195.837463,145.743698 197.986710,146.886536 
	C203.966522,146.819244 209.946350,146.751968 216.395477,146.904465 
	C216.682785,146.708206 216.970078,146.511948 217.257370,146.315674 
	C216.934509,146.083344 216.611664,145.851028 215.749435,145.154816 
M125.982933,158.758438 
	C125.195465,163.082230 127.928810,163.294846 131.026443,163.071716 
	C132.026810,162.999649 133.025436,162.903336 135.177795,162.719788 
	C132.709763,162.026749 131.389053,161.655884 131.460602,161.675964 
	C130.013031,158.490662 129.054550,156.381577 128.096085,154.272491 
	C127.591003,154.424179 127.085930,154.575867 126.580856,154.727554 
	C126.393105,155.798752 126.205353,156.869949 125.982933,158.758438 
M138.144531,163.401382 
	C140.581512,163.586334 143.018494,163.771301 145.455475,163.956268 
	C145.454681,163.664566 145.453873,163.372849 145.453079,163.081146 
	C143.210602,163.081146 140.968140,163.081146 138.144531,163.401382 
z"/>
<path fill="#D6D7FA" opacity="1.000000" stroke="none" 
	d="
M384.347107,124.922249 
	C384.050934,124.006996 383.754761,123.091743 383.375946,121.921051 
	C389.134613,121.921051 394.723267,121.921051 400.131348,121.921051 
	C399.854492,125.115829 399.362823,128.282776 399.342621,131.452744 
	C399.251251,145.780838 399.495087,160.113632 399.222412,174.437195 
	C399.009766,185.608353 388.506104,193.328659 378.151367,190.341675 
	C378.600616,190.076019 379.029541,189.822372 380.057312,189.209320 
	C382.062958,184.749924 384.506500,180.693954 384.682648,176.541779 
	C385.216675,163.956482 384.918213,151.333694 384.846893,138.726059 
	C384.820831,134.123993 384.521667,129.523468 384.347107,124.922249 
z"/>
<path fill="#D3D5F7" opacity="1.000000" stroke="none" 
	d="
M417.389740,121.674034 
	C433.422699,120.346901 433.407074,120.351952 438.370544,135.688538 
	C439.645844,139.629028 441.053375,143.526718 442.607605,148.096848 
	C443.329071,150.096817 443.843079,151.444016 444.357117,152.791199 
	C444.357117,152.791199 444.292328,153.027328 444.499390,153.507385 
	C444.901215,155.331314 445.096008,156.675201 445.290802,158.019073 
	C444.084900,162.614395 442.997589,167.247116 441.570374,171.772629 
	C441.293854,172.649399 439.690308,173.107651 437.981293,173.746063 
	C436.154419,172.354370 434.584991,171.144440 434.007446,169.570541 
	C428.566223,154.742859 423.294342,139.853043 418.042480,124.776657 
	C418.107971,124.222908 417.933289,124.024010 417.435913,123.736343 
	C417.165771,123.350578 417.046997,123.203957 416.983917,122.819427 
	C417.220428,122.303772 417.337158,122.001282 417.389740,121.674034 
z"/>
<path fill="#D4D6F8" opacity="1.000000" stroke="none" 
	d="
M454.932922,123.972725 
	C455.805603,123.047325 456.628815,121.385223 457.559448,121.322723 
	C461.829010,121.035973 466.128601,121.196548 470.925659,121.196548 
	C470.925659,138.543320 470.925659,155.577286 470.925659,173.023758 
	C470.407135,173.058151 469.145752,173.141846 467.011353,173.209259 
	C462.409302,173.192978 458.680328,173.192978 455.734222,173.192978 
	C455.734222,158.136002 455.734222,143.593475 455.857208,128.691101 
	C455.631104,126.878410 455.282013,125.425575 454.932922,123.972725 
z"/>
<path fill="#D3D5F7" opacity="1.000000" stroke="none" 
	d="
M301.132629,121.246895 
	C306.392761,121.262184 311.652924,121.277481 317.415649,121.630943 
	C318.003601,122.374123 318.088989,122.779129 318.174377,123.184128 
	C318.213654,125.622398 317.823334,128.161057 318.365631,130.481796 
	C320.881348,141.248230 323.604980,151.967285 326.361694,162.675629 
	C327.515289,167.156738 326.129700,171.784821 322.037323,173.463135 
	C317.090515,174.072083 315.025452,172.515396 314.179443,168.172470 
	C313.043579,162.341187 311.159546,156.647171 309.451050,150.937836 
	C306.757080,141.935440 303.941956,132.969330 301.178101,123.987854 
	C301.178101,123.987854 301.158417,123.503410 301.083374,122.982117 
	C301.049744,122.056183 301.091187,121.651543 301.132629,121.246895 
z"/>
<path fill="#D1D3F5" opacity="1.000000" stroke="none" 
	d="
M336.010559,125.021545 
	C336.589050,121.175865 339.637054,121.432556 342.050842,122.036972 
	C343.444427,122.385933 345.011932,124.259979 345.472504,125.762840 
	C349.054230,137.450607 352.366333,149.220810 355.832336,160.944641 
	C356.098785,161.845886 356.904846,162.587601 357.851562,163.122925 
	C358.243011,162.842377 358.283447,162.758621 358.283447,162.758621 
	C357.673126,165.558472 357.345947,168.467606 356.326233,171.109421 
	C355.856110,172.327454 354.031342,173.022583 352.037903,173.922455 
	C347.338135,174.401352 346.006531,172.211685 345.055298,168.758041 
	C342.217285,158.453964 339.030396,148.245972 336.005981,137.651886 
	C335.328461,136.546921 334.624756,135.790497 334.028076,134.699677 
	C334.760284,131.250687 335.385437,128.136108 336.010559,125.021545 
z"/>
<path fill="#192F4B" opacity="1.000000" stroke="none" 
	d="
M300.802460,124.002724 
	C303.941956,132.969330 306.757080,141.935440 309.451050,150.937836 
	C311.159546,156.647171 313.043579,162.341187 314.179443,168.172470 
	C315.025452,172.515396 317.090515,174.072083 321.648621,173.590179 
	C320.814240,178.132050 317.068787,177.365814 314.283691,176.686478 
	C312.646576,176.287140 310.885010,173.825638 310.333832,171.952057 
	C305.755371,156.389206 301.446136,140.747131 296.934570,124.698746 
	C297.974335,124.495941 299.200562,124.256767 300.802460,124.002724 
z"/>
<path fill="#192F4B" opacity="1.000000" stroke="none" 
	d="
M417.973572,124.981140 
	C423.294342,139.853043 428.566223,154.742859 434.007446,169.570541 
	C434.584991,171.144440 436.154419,172.354370 437.620087,173.845520 
	C435.700714,177.954422 433.642670,178.139862 430.138397,174.034164 
	C429.660919,172.941467 429.372833,172.461746 429.069092,171.586121 
	C426.057037,162.473633 423.060669,153.757065 420.001099,144.635315 
	C419.270081,141.189499 418.602325,138.148895 417.737427,134.961685 
	C417.305939,134.580261 417.122650,134.310654 416.952148,133.664398 
	C415.960693,132.200150 415.007538,131.077789 414.054382,129.955429 
	C413.795624,128.847321 413.536896,127.739212 413.141541,126.078415 
	C413.004944,125.525742 413.034332,125.041534 413.034332,125.041527 
	C413.467377,124.921936 413.900421,124.802353 415.178955,124.486710 
	C416.674164,124.520821 417.323883,124.750984 417.973572,124.981140 
z"/>
<path fill="#1E324E" opacity="1.000000" stroke="none" 
	d="
M383.952942,124.948654 
	C384.521667,129.523468 384.820831,134.123993 384.846893,138.726059 
	C384.918213,151.333694 385.216675,163.956482 384.682648,176.541779 
	C384.506500,180.693954 382.062958,184.749924 380.306641,188.922699 
	C381.943390,167.935272 380.873383,146.877441 380.688751,125.327446 
	C381.089539,125.278236 382.324158,125.126648 383.952942,124.948654 
z"/>
<path fill="#1E324E" opacity="1.000000" stroke="none" 
	d="
M455.734222,129.050949 
	C455.734222,143.593475 455.734222,158.136002 455.734222,173.192978 
	C458.680328,173.192978 462.409302,173.192978 466.596039,173.290955 
	C468.478455,174.526245 469.903107,175.663559 471.259979,176.746796 
	C463.869049,176.746796 456.182861,176.746796 449.517090,176.746796 
	C450.294281,173.977585 451.761963,170.920944 451.906403,167.803024 
	C452.258728,160.194366 451.998444,152.557327 451.993256,144.087143 
	C451.631531,141.808685 451.261353,140.374802 450.891174,138.940903 
	C450.891205,138.940903 450.900696,138.482010 451.036987,137.996582 
	C451.415344,136.985123 451.657410,136.459106 451.899445,135.933090 
	C451.899445,135.933090 451.864166,135.479416 451.975708,135.013657 
	C452.368256,134.078583 452.649261,133.609268 453.074890,132.834564 
	C454.057739,131.369766 454.895996,130.210358 455.734222,129.050949 
z"/>
<path fill="#192F4B" opacity="1.000000" stroke="none" 
	d="
M335.979767,138.000458 
	C339.030396,148.245972 342.217285,158.453964 345.055298,168.758041 
	C346.006531,172.211685 347.338135,174.401352 351.654541,174.003265 
	C351.916168,177.892288 348.978607,177.240005 346.939423,176.857590 
	C345.150970,176.522186 342.569031,175.422913 342.073456,174.039307 
	C339.727478,167.489319 338.088715,160.690247 335.962494,154.055405 
	C335.028870,151.142044 333.358826,148.467575 332.380859,145.564148 
	C331.992767,144.412064 332.574768,142.933197 333.090210,141.092163 
	C334.303467,139.720947 335.141602,138.860703 335.979767,138.000458 
z"/>
<path fill="#BBBBD9" opacity="1.000000" stroke="none" 
	d="
M277.098999,121.287903 
	C277.100555,119.131050 277.100555,117.433296 277.100555,115.735550 
	C277.575684,115.738983 278.050781,115.742416 278.525909,115.745850 
	C278.525909,138.195877 278.525909,160.645920 278.525909,183.095947 
	C278.049774,183.108597 277.573608,183.121262 277.097473,183.133926 
	C277.097473,162.671616 277.097473,142.209320 277.098999,121.287903 
z"/>
<path fill="#BBBBD9" opacity="1.000000" stroke="none" 
	d="
M382.189087,209.128418 
	C378.139893,210.348633 374.341064,211.272873 370.047699,212.317429 
	C370.047699,206.677643 370.047699,202.444901 370.047699,197.840729 
	C374.292511,197.456909 378.671295,196.096741 382.074127,199.709885 
	C384.618927,202.411972 384.488617,205.701218 382.189087,209.128418 
M372.867981,207.272095 
	C374.153564,211.203110 377.338898,209.257629 378.648865,208.231003 
	C380.004639,207.168503 381.155396,203.419037 380.435822,202.628036 
	C378.833771,200.867065 376.008759,200.218689 372.854645,198.724991 
	C372.854645,202.444595 372.854645,204.394913 372.867981,207.272095 
z"/>
<path fill="#C2C3E2" opacity="1.000000" stroke="none" 
	d="
M215.154678,198.175430 
	C216.968857,198.926331 218.740356,199.881134 220.218048,201.172226 
	C221.544662,202.331314 222.548355,203.860016 224.268204,205.909256 
	C224.699249,202.559235 225.025208,200.025986 225.351166,197.492737 
	C225.844284,197.516510 226.337402,197.540298 226.830521,197.564072 
	C226.830521,202.022522 226.830521,206.480957 226.830521,212.519211 
	C223.595001,209.141647 220.960541,206.391510 217.829956,203.123489 
	C217.461533,206.377518 217.173340,208.923004 216.885132,211.468491 
	C216.251465,211.451660 215.617783,211.434845 214.984116,211.418015 
	C214.984116,207.120590 214.984116,202.823151 215.154678,198.175430 
z"/>
<path fill="#C2C3E2" opacity="1.000000" stroke="none" 
	d="
M414.617340,209.861526 
	C410.718323,210.736755 407.079468,211.347321 403.071014,212.019913 
	C403.071014,206.755753 403.071014,202.367004 403.071014,197.466385 
	C405.471771,197.466385 407.744324,197.336960 409.996246,197.497421 
	C413.189178,197.724884 415.366760,198.618027 414.290649,202.790909 
	C413.754303,204.870789 414.636810,207.316574 414.617340,209.861526 
M408.605133,205.298401 
	C407.494537,206.070953 406.383942,206.843506 405.273346,207.616058 
	C406.072571,208.189697 406.920197,209.295029 407.661102,209.227661 
	C409.267395,209.081543 410.819122,208.335632 412.393158,207.835007 
	C411.412933,206.999771 410.432678,206.164520 408.605133,205.298401 
M410.716858,199.746613 
	C408.902466,200.147171 407.088104,200.547729 405.273712,200.948288 
	C406.056122,201.683975 406.854980,203.046936 407.617645,203.026993 
	C409.293701,202.983139 412.606079,204.329529 410.716858,199.746613 
z"/>
<path fill="#D1D2F4" opacity="1.000000" stroke="none" 
	d="
M262.758850,204.946747 
	C263.538879,202.502533 263.907532,200.040344 264.276154,197.578140 
	C264.726410,197.585617 265.176636,197.593094 265.626892,197.600571 
	C265.626892,202.062119 265.626892,206.523666 265.626892,212.513092 
	C262.506226,209.102051 259.996368,206.358658 256.920441,202.996521 
	C256.491882,206.194885 256.141266,208.811554 255.790665,211.428223 
	C255.349274,211.391678 254.907883,211.355148 254.466492,211.318604 
	C254.466492,206.889786 254.466492,202.460968 254.466492,196.420334 
	C257.518250,199.715073 259.932831,202.321915 262.758850,204.946747 
z"/>
<path fill="#C2C3E2" opacity="1.000000" stroke="none" 
	d="
M364.302582,207.731140 
	C364.941986,208.934265 365.436523,209.777603 366.288391,211.230209 
	C364.874146,211.025146 363.560516,211.197983 363.277710,210.737595 
	C360.379089,206.018951 358.005432,205.979568 355.234619,211.400650 
	C355.234619,207.058517 355.234619,202.716370 355.234619,196.993317 
	C358.420990,197.713455 362.180969,197.944641 365.127380,199.612808 
	C365.991394,200.101990 364.545135,204.671799 364.302582,207.731140 
M363.536072,201.626160 
	C361.703949,200.841522 359.871796,200.056885 357.527771,199.053024 
	C357.527771,201.830933 357.527771,203.365067 357.527771,206.761322 
	C360.295990,204.812286 361.997375,203.614365 363.536072,201.626160 
z"/>
<path fill="#BBBBD9" opacity="1.000000" stroke="none" 
	d="
M350.305511,201.061615 
	C351.746765,207.253998 349.781372,210.881775 344.952209,211.467087 
	C341.391357,211.898697 337.701294,211.299484 336.732239,207.546570 
	C336.088989,205.055588 336.512177,200.800507 338.142090,199.575119 
	C340.349762,197.915359 344.166168,198.169266 347.302032,198.110062 
	C348.224091,198.092651 349.178619,199.796188 350.305511,201.061615 
M341.859802,199.888901 
	C340.922821,201.936310 339.457764,203.941605 339.289581,206.050339 
	C339.214569,206.991241 342.134918,209.268326 343.017517,208.965042 
	C344.991852,208.286575 347.668121,206.608337 348.027863,204.907730 
	C348.774689,201.377533 346.399750,199.463226 341.859802,199.888901 
z"/>
<path fill="#B6B7D4" opacity="1.000000" stroke="none" 
	d="
M434.311523,207.972870 
	C436.944916,208.924591 439.518646,209.403625 442.092407,209.882660 
	C442.054840,210.261292 442.017273,210.639923 441.979736,211.018555 
	C438.663757,211.018555 435.347748,211.018555 431.659760,211.018555 
	C431.659760,206.738098 431.659760,202.366486 431.659760,197.951538 
	C435.176880,197.951538 438.465454,197.951538 442.091248,197.951538 
	C440.018372,201.139496 434.795319,197.178177 434.114899,202.588043 
	C436.628448,202.901154 438.808716,203.172760 442.388916,203.618759 
	C438.824829,205.318848 436.538330,206.409515 434.311523,207.972870 
z"/>
<path fill="#1C222D" opacity="1.000000" stroke="none" 
	d="
M414.033875,130.428070 
	C415.007538,131.077789 415.960693,132.200150 416.574829,133.779053 
	C415.825043,135.746338 415.029541,137.268021 415.072296,138.765808 
	C415.228119,144.227631 415.772186,149.677673 415.962860,155.139404 
	C416.142792,160.293152 416.192383,165.459457 416.055603,170.613770 
	C415.941620,174.907745 417.719604,176.732941 421.993896,175.999390 
	C420.999634,176.658035 420.033356,177.828827 419.006165,177.884949 
	C414.967072,178.105515 410.908813,177.975281 406.857697,177.975281 
	C406.816101,177.503662 406.774506,177.032028 406.732941,176.560410 
	C408.681946,176.238525 410.630920,175.916641 414.013336,175.358032 
	C414.013336,160.645844 414.013336,145.773270 414.033875,130.428070 
z"/>
<path fill="#BBBBD9" opacity="1.000000" stroke="none" 
	d="
M388.202118,204.082581 
	C389.773010,201.664032 391.176392,199.573929 392.579773,197.483826 
	C394.069397,199.634399 395.715790,201.695801 397.003693,203.961060 
	C398.246521,206.147064 399.119415,208.543365 400.558075,211.744553 
	C397.244354,210.191849 395.025635,208.344177 392.800018,208.335876 
	C390.559692,208.327530 388.312531,210.147934 385.269104,211.529968 
	C386.324829,208.812332 387.179718,206.611679 388.202118,204.082581 
z"/>
<path fill="#BBBBD9" opacity="1.000000" stroke="none" 
	d="
M238.639328,205.438477 
	C240.400848,202.561066 242.007080,200.014633 243.613312,197.468185 
	C245.230988,199.939865 246.943008,202.356293 248.434433,204.901947 
	C249.495422,206.712906 250.259293,208.697952 250.965027,211.428894 
	C246.110672,207.719025 241.462646,205.636887 237.098053,212.370865 
	C236.872650,211.915359 236.647232,211.459839 236.421814,211.004333 
	C237.109222,209.259369 237.796631,207.514420 238.639328,205.438477 
z"/>
<path fill="#BBBBD9" opacity="1.000000" stroke="none" 
	d="
M203.379578,208.113525 
	C201.465225,209.285629 199.949234,210.454681 198.433243,211.623734 
	C198.051971,211.401489 197.670700,211.179245 197.289444,210.957001 
	C199.204193,206.761887 201.043625,202.526962 203.195129,198.457031 
	C203.346146,198.171371 206.574341,198.678940 207.055176,199.546906 
	C209.027679,203.107498 210.490143,206.950653 212.369461,211.209091 
	C209.129211,210.040466 206.453552,209.075470 203.379578,208.113525 
z"/>
<path fill="#BBBBD9" opacity="1.000000" stroke="none" 
	d="
M298.168884,198.329407 
	C299.603119,198.317551 301.575165,198.215790 301.961456,198.949219 
	C303.990784,202.802322 305.619141,206.866623 307.077484,211.651657 
	C302.265869,206.876358 297.761566,206.442398 293.327301,212.085434 
	C293.084503,211.711334 292.841705,211.337250 292.598938,210.963150 
	C294.390961,206.850372 296.182983,202.737595 298.168884,198.329407 
z"/>
<path fill="#1E1D1F" opacity="1.000000" stroke="none" 
	d="
M422.340240,175.989304 
	C417.719604,176.732941 415.941620,174.907745 416.055603,170.613770 
	C416.192383,165.459457 416.142792,160.293152 415.962860,155.139404 
	C415.772186,149.677673 415.228119,144.227631 415.072296,138.765808 
	C415.029541,137.268021 415.825043,135.746338 416.613159,134.120956 
	C417.122650,134.310654 417.305939,134.580261 417.702606,135.158981 
	C417.864868,135.502869 417.810730,135.902710 417.709290,136.036407 
	C417.485626,136.514343 417.571869,136.806412 417.903809,137.510742 
	C418.023560,145.877029 418.106140,153.778931 418.135498,162.151398 
	C418.050293,164.104752 418.126282,165.599365 417.965607,167.068069 
	C417.525879,171.087769 418.759857,173.495972 423.306213,173.149155 
	C423.848145,173.107819 424.438873,173.705887 425.006989,174.007568 
	C424.233521,174.664780 423.460052,175.321991 422.340240,175.989304 
z"/>
<path fill="#C2C3E2" opacity="1.000000" stroke="none" 
	d="
M272.334595,197.532089 
	C274.759552,197.509674 276.767426,197.354752 278.724487,197.602173 
	C282.560394,198.087097 284.706635,200.492798 284.770966,204.280136 
	C284.834595,208.024170 282.910278,210.696732 279.046753,211.207321 
	C276.485382,211.545807 273.842987,211.271469 270.422668,211.271469 
	C270.939545,206.464096 271.417053,202.022766 272.334595,197.532089 
M281.317810,206.807770 
	C282.437012,200.682846 280.648804,199.108810 273.670166,200.249176 
	C273.670166,203.116409 273.670166,206.007462 273.670166,209.977600 
	C276.480530,209.014847 278.685516,208.259476 281.317810,206.807770 
z"/>
<path fill="#C2C3E2" opacity="1.000000" stroke="none" 
	d="
M189.535217,205.460510 
	C186.951340,207.356598 186.685349,208.789398 190.033920,209.220871 
	C191.855194,209.455521 193.700256,209.505661 195.534576,209.639038 
	C195.516556,210.076508 195.498550,210.513977 195.480530,210.951447 
	C192.161911,210.951447 188.843292,210.951447 185.220276,210.951447 
	C185.220276,206.710617 185.220276,202.328232 185.220276,197.805786 
	C188.599838,197.805786 191.811508,197.805786 195.415085,197.805786 
	C193.779984,201.369278 187.775131,196.738174 187.869156,202.718674 
	C190.088867,202.990753 192.195969,203.249023 194.303070,203.507309 
	C194.305023,204.001236 194.306976,204.495163 194.308929,204.989105 
	C192.861267,205.133163 191.413605,205.277222 189.535217,205.460510 
z"/>
<path fill="#B6B7D4" opacity="1.000000" stroke="none" 
	d="
M311.302032,211.376312 
	C310.459381,206.897278 309.996490,202.457535 309.524445,197.929993 
	C313.693756,197.929993 316.968719,197.929993 320.451294,197.929993 
	C318.862640,201.458908 311.844879,196.388382 313.203217,203.477890 
	C315.340942,203.698044 317.404938,203.910614 319.468964,204.123184 
	C319.533356,204.551498 319.597748,204.979813 319.662140,205.408127 
	C317.707977,205.829636 315.753815,206.251129 313.619904,206.711395 
	C313.051086,208.092087 312.366455,209.753830 311.302032,211.376312 
z"/>
<path fill="#B6B7D4" opacity="1.000000" stroke="none" 
	d="
M166.783112,208.115540 
	C168.667007,210.066132 168.602112,210.698364 166.341003,211.201599 
	C162.793594,211.991135 159.181152,212.091476 157.052429,208.405060 
	C155.099777,205.023590 155.235931,201.416306 158.400131,198.924286 
	C161.713486,196.314819 165.404144,196.508987 169.965164,199.949829 
	C164.943771,200.965988 156.785721,197.110687 159.340027,206.472702 
	C160.227097,209.723923 163.481171,209.874008 166.783112,208.115540 
z"/>
<path fill="#D1D2F4" opacity="1.000000" stroke="none" 
	d="
M325.614105,197.585449 
	C328.612274,197.567078 331.186676,197.567078 333.761078,197.567078 
	C333.803223,198.047928 333.845367,198.528763 333.887482,199.009613 
	C332.488098,199.121765 330.989716,198.961426 329.717377,199.423508 
	C328.470245,199.876419 327.453125,200.962753 326.335052,201.771118 
	C327.379059,202.466721 328.348358,203.350983 329.488922,203.802872 
	C330.549713,204.223206 331.793121,204.182770 332.956146,204.345184 
	C332.979797,204.792862 333.003448,205.240524 333.027100,205.688202 
	C331.090698,205.917587 329.154297,206.146957 326.906250,206.413254 
	C326.466705,208.016434 325.996399,209.731934 325.405243,211.888077 
	C322.849670,207.964783 322.955383,200.455215 325.614105,197.585449 
z"/>
<path fill="#ABACC7" opacity="1.000000" stroke="none" 
	d="
M160.358398,169.051605 
	C159.626617,164.788727 160.953323,160.502762 156.767365,156.691620 
	C155.403275,155.449677 157.532684,149.935226 158.655243,146.572098 
	C159.261597,144.755463 158.121155,140.939255 162.543671,142.194672 
	C161.861267,145.112366 161.024078,147.588181 160.168961,150.495209 
	C160.803787,152.346191 161.844360,153.716217 162.034180,155.195419 
	C162.536545,159.110138 162.670700,163.072128 162.951401,167.015305 
	C162.707123,167.460800 162.462845,167.906296 162.141998,168.609711 
	C161.613678,168.939484 161.161957,169.011353 160.358398,169.051605 
M159.483612,155.442719 
	C159.565231,155.587387 159.617538,155.806870 159.737427,155.853851 
	C159.839539,155.893875 160.121582,155.762833 160.149185,155.660385 
	C160.437012,154.591568 160.689529,153.513229 160.951828,152.437531 
	C160.739227,152.377548 160.526611,152.317581 160.313995,152.257599 
	C160.035538,153.138733 159.757065,154.019867 159.483612,155.442719 
z"/>
<path fill="#D1D2F4" opacity="1.000000" stroke="none" 
	d="
M427.175720,211.369568 
	C424.299255,211.397949 421.824707,211.397949 419.262207,211.397949 
	C419.262207,206.619659 419.262207,202.134201 419.262207,197.648727 
	C419.710114,197.611130 420.158051,197.573532 420.605957,197.535919 
	C420.605957,201.217224 420.605957,204.898529 420.605957,208.973495 
	C423.411560,209.137405 425.358765,209.199921 427.281799,209.448807 
	C427.459045,209.471741 427.482635,210.682175 427.175720,211.369568 
z"/>
<path fill="#ABACC7" opacity="1.000000" stroke="none" 
	d="
M174.298172,211.588303 
	C173.248062,210.612869 172.153564,209.685165 172.096466,208.697510 
	C171.883713,205.017181 172.011536,201.317169 172.759781,197.546326 
	C176.742401,200.488968 173.988220,204.863770 175.724518,208.719177 
	C177.538437,208.973877 179.832764,209.296036 182.127075,209.618179 
	C182.166138,210.161560 182.205200,210.704926 182.244247,211.248306 
	C179.739502,211.368378 177.234756,211.488449 174.298172,211.588303 
z"/>
<path fill="#232325" opacity="1.000000" stroke="none" 
	d="
M251.029083,145.481476 
	C244.346756,146.471573 237.489624,148.575836 232.076340,141.302933 
	C236.399460,142.015823 240.726013,142.708862 245.044052,143.451248 
	C246.805023,143.753998 248.547562,144.163757 250.661819,144.262146 
	C251.025146,143.999466 250.956482,143.982941 250.839844,144.308716 
	C250.797989,144.877472 250.872803,145.120422 250.947632,145.363388 
	C250.947632,145.363388 251.039459,145.426697 251.029083,145.481476 
z"/>
<path fill="#232325" opacity="1.000000" stroke="none" 
	d="
M112.496193,144.001465 
	C112.694412,146.174774 112.482216,148.357071 112.582642,150.637451 
	C112.895264,154.263275 112.895264,157.791000 112.895264,161.318710 
	C112.444038,161.470200 111.992813,161.621674 111.541595,161.773163 
	C110.718140,160.602539 109.283127,159.481186 109.184143,158.252213 
	C108.867653,154.322876 108.867149,150.339645 109.173485,146.410645 
	C109.241356,145.540192 111.068634,144.806900 112.496193,144.001465 
z"/>
<path fill="#8B8BA0" opacity="1.000000" stroke="none" 
	d="
M143.047195,131.966553 
	C140.414841,133.783722 137.770096,134.399200 134.377075,131.972717 
	C132.876587,132.477554 132.093842,133.058121 131.311081,133.638687 
	C128.909012,133.086990 126.506935,132.535294 123.978996,131.640808 
	C130.554291,131.558151 137.057312,130.632385 143.673004,128.076462 
	C143.684418,129.174988 143.306610,130.248550 142.972229,131.655853 
	C143.015671,131.989578 143.047195,131.966553 143.047195,131.966553 
z"/>
<path fill="#1C222D" opacity="1.000000" stroke="none" 
	d="
M425.423035,174.008850 
	C424.438873,173.705887 423.848145,173.107819 423.306213,173.149155 
	C418.759857,173.495972 417.525879,171.087769 417.965607,167.068069 
	C418.126282,165.599365 418.050293,164.104752 418.339661,162.297516 
	C418.737244,162.064423 418.877441,162.155792 419.205017,162.587646 
	C419.599091,164.048981 420.088531,165.202377 419.963745,166.285004 
	C419.410461,171.086533 421.809113,172.501907 426.116272,172.015656 
	C427.094574,171.905197 428.094696,171.988098 429.084778,171.982025 
	C429.372833,172.461746 429.660919,172.941467 429.975708,173.709076 
	C428.614655,174.001343 427.226837,174.005722 425.423035,174.008850 
z"/>
<path fill="#302F33" opacity="1.000000" stroke="none" 
	d="
M249.965332,165.254059 
	C251.755096,165.079010 253.544876,164.903992 255.015152,164.760208 
	C255.321304,166.206985 255.544205,167.260376 255.893082,168.620560 
	C253.179504,169.172821 250.339966,169.418289 247.249527,169.323944 
	C246.998627,168.984131 247.133255,168.797684 247.421997,168.689163 
	C248.462265,167.471771 249.213806,166.362915 249.965332,165.254059 
z"/>
<path fill="#192F4B" opacity="1.000000" stroke="none" 
	d="
M335.626892,125.040596 
	C335.385437,128.136108 334.760284,131.250687 333.806641,134.867798 
	C332.654999,135.592438 331.831909,135.814529 331.008789,136.036621 
	C332.420258,132.377625 333.831726,128.718643 335.626892,125.040596 
z"/>
<path fill="#302F33" opacity="1.000000" stroke="none" 
	d="
M243.380249,169.026611 
	C240.613449,168.998657 238.234863,168.995422 235.432068,168.578796 
	C234.990967,167.485184 234.974045,166.804947 235.141388,166.063461 
	C235.670807,165.850555 236.015976,165.698898 236.361145,165.547256 
	C236.746292,165.567535 237.131454,165.587814 238.042969,166.040573 
	C241.423981,167.247925 244.278625,168.022812 247.133255,168.797699 
	C247.133255,168.797684 246.998627,168.984131 246.928650,169.078033 
	C245.828613,169.131729 244.798523,169.091507 243.380249,169.026611 
z"/>
<path fill="#737476" opacity="1.000000" stroke="none" 
	d="
M455.857208,128.691101 
	C454.895996,130.210358 454.057739,131.369766 452.763367,132.572632 
	C452.229431,130.420242 452.151581,128.224396 452.073730,126.028557 
	C452.818939,125.370712 453.564178,124.712868 454.621155,124.013878 
	C455.282013,125.425575 455.631104,126.878410 455.857208,128.691101 
z"/>
<path fill="#232325" opacity="1.000000" stroke="none" 
	d="
M150.995224,127.908386 
	C150.142136,127.700439 149.289047,127.492485 148.246109,126.881172 
	C150.670288,125.251282 153.270828,121.589668 155.544098,126.730255 
	C153.778214,127.320297 152.386719,127.614342 150.995224,127.908386 
z"/>
<path fill="#737476" opacity="1.000000" stroke="none" 
	d="
M418.042480,124.776649 
	C417.323883,124.750984 416.674164,124.520821 415.819702,124.277901 
	C413.702148,123.523895 411.789398,122.782639 409.876678,122.041389 
	C409.836914,121.784164 409.797150,121.526939 409.757385,121.269714 
	C412.026978,121.269714 414.296539,121.269714 416.977936,121.471878 
	C417.337158,122.001282 417.220428,122.303772 416.727173,122.983292 
	C416.805603,123.581871 417.196442,123.778671 417.587311,123.975471 
	C417.933289,124.024010 418.107971,124.222908 418.042480,124.776649 
z"/>
<path fill="#20242C" opacity="1.000000" stroke="none" 
	d="
M451.714081,126.114471 
	C452.151581,128.224396 452.229431,130.420242 452.618774,132.878021 
	C452.649261,133.609268 452.368256,134.078583 451.948425,134.787781 
	C451.009796,134.927902 450.210052,134.828140 449.205383,134.864441 
	C449.000519,135.000504 448.990997,134.994598 448.990997,134.994598 
	C449.778809,132.063187 450.566620,129.131790 451.714081,126.114471 
z"/>
<path fill="#1E324E" opacity="1.000000" stroke="none" 
	d="
M330.780151,136.242294 
	C331.831909,135.814529 332.654999,135.592438 333.699585,135.202209 
	C334.624756,135.790497 335.328461,136.546921 336.005981,137.651886 
	C335.141602,138.860703 334.303467,139.720947 333.224304,140.797943 
	C332.172699,139.492462 331.362122,137.970215 330.780151,136.242294 
z"/>
<path fill="#20242C" opacity="1.000000" stroke="none" 
	d="
M444.995758,147.995728 
	C445.813049,144.819778 446.630341,141.643814 447.723419,138.233582 
	C447.999207,137.999298 448.008453,138.005127 448.008453,138.005127 
	C447.754913,141.267319 447.501373,144.529526 447.237152,147.929138 
	C446.983704,147.941010 446.331085,147.971603 445.339233,148.001099 
	C445.000000,148.000000 444.995758,147.995728 444.995758,147.995728 
z"/>
<path fill="#20242C" opacity="1.000000" stroke="none" 
	d="
M445.619720,157.908356 
	C445.096008,156.675201 444.901215,155.331314 444.585724,153.594177 
	C445.416534,152.362686 446.368042,151.524475 447.319580,150.686264 
	C447.667664,150.792557 448.015717,150.898849 448.363800,151.005142 
	C447.558746,153.269302 446.753693,155.533463 445.619720,157.908356 
z"/>
<path fill="#20242C" opacity="1.000000" stroke="none" 
	d="
M450.575928,139.037888 
	C451.261353,140.374802 451.631531,141.808685 451.984375,143.618164 
	C449.755157,142.951202 447.947205,141.766754 450.575928,139.037888 
z"/>
<path fill="#8B8BA0" opacity="1.000000" stroke="none" 
	d="
M318.512054,123.109619 
	C318.088989,122.779129 318.003601,122.374123 317.871002,121.660278 
	C319.282013,121.261612 320.740295,121.171768 322.198547,121.081932 
	C322.263367,121.276794 322.328156,121.471649 322.392975,121.666512 
	C321.211884,122.122711 320.030823,122.578903 318.512054,123.109619 
z"/>
<path fill="#1C222D" opacity="1.000000" stroke="none" 
	d="
M412.646515,125.014633 
	C413.034332,125.041534 413.004944,125.525742 412.988953,125.767899 
	C410.925537,126.010048 408.878082,126.010048 406.830627,126.010048 
	C406.831238,125.463097 406.831848,124.916153 406.832458,124.369202 
	C408.641205,124.575386 410.449951,124.781563 412.646515,125.014633 
z"/>
<path fill="#8B8BA0" opacity="1.000000" stroke="none" 
	d="
M151.164963,128.241928 
	C152.386719,127.614342 153.778214,127.320297 155.532043,127.115646 
	C155.743896,127.716248 155.593414,128.227463 155.205521,128.869629 
	C153.756973,128.858871 152.545837,128.717178 151.164963,128.241928 
z"/>
<path fill="#8B8BA0" opacity="1.000000" stroke="none" 
	d="
M300.830322,121.111313 
	C301.091187,121.651543 301.049744,122.056183 300.974731,122.765404 
	C299.913635,122.604729 298.886139,122.139481 297.049316,121.307762 
	C298.697815,121.150414 299.612915,121.063072 300.830322,121.111313 
z"/>
<path fill="#20242C" opacity="1.000000" stroke="none" 
	d="
M444.534180,152.332611 
	C443.843079,151.444016 443.329071,150.096817 442.832367,148.386597 
	C443.326630,148.017395 443.803589,148.011215 444.638123,148.000381 
	C444.995758,147.995728 445.000000,148.000000 445.002289,148.002213 
	C444.906799,149.294296 444.809021,150.584152 444.534180,152.332611 
z"/>
<path fill="#8B8BA0" opacity="1.000000" stroke="none" 
	d="
M154.737915,132.799988 
	C154.469452,132.156067 154.360657,131.126526 154.572159,130.017303 
	C154.894165,130.763184 154.895889,131.588791 154.737915,132.799988 
z"/>
<path fill="#1E324E" opacity="1.000000" stroke="none" 
	d="
M474.083984,173.289444 
	C474.835419,173.117661 475.402252,173.117661 475.969055,173.117661 
	C475.956360,173.337997 475.943665,173.558350 475.930939,173.778687 
	C475.253754,173.672867 474.576538,173.567047 474.083984,173.289444 
z"/>
<path fill="#20242C" opacity="1.000000" stroke="none" 
	d="
M447.994385,137.994461 
	C448.162201,137.140274 448.334869,136.290939 448.749268,135.218094 
	C448.990997,134.994598 449.000519,135.000504 449.005371,135.005280 
	C448.835754,135.857895 448.661285,136.705734 448.247620,137.779358 
	C448.008453,138.005127 447.999207,137.999298 447.994385,137.994461 
z"/>
<path fill="#20242C" opacity="1.000000" stroke="none" 
	d="
M451.629944,135.990997 
	C451.657410,136.459106 451.415344,136.985123 451.033417,137.767120 
	C451.049164,137.365036 451.204773,136.706970 451.629944,135.990997 
z"/>
<path fill="#D1D2F4" opacity="1.000000" stroke="none" 
	d="
M251.255920,145.355133 
	C250.872803,145.120422 250.797989,144.877472 250.850922,144.275192 
	C251.173843,144.392883 251.369019,144.869888 251.255920,145.355133 
z"/>
<path fill="#232325" opacity="1.000000" stroke="none" 
	d="
M146.826447,127.333206 
	C146.785172,127.558685 146.649429,127.690491 146.285919,127.653000 
	C146.219803,127.224800 146.444427,127.143402 146.826447,127.333206 
z"/>
<path fill="#D1D3F5" opacity="1.000000" stroke="none" 
	d="
M358.236450,162.888412 
	C358.229889,162.934448 358.078705,162.858459 358.078705,162.858459 
	C358.078705,162.858459 358.202087,163.007263 358.242767,162.882935 
	C358.283447,162.758621 358.243011,162.842377 358.236450,162.888412 
z"/>
<path fill="#1E1D1F" opacity="1.000000" stroke="none" 
	d="
M163.127716,167.310730 
	C162.670700,163.072128 162.536545,159.110138 162.034180,155.195419 
	C161.844360,153.716217 160.803787,152.346191 160.430054,150.455170 
	C161.125717,149.733719 161.542374,149.483521 162.320419,149.199646 
	C163.143448,148.463287 163.605103,147.760620 164.030563,147.079163 
	C163.994370,147.100388 164.052444,147.160965 164.052444,147.160965 
	C169.636215,145.145950 172.779129,146.410416 173.775208,152.158432 
	C174.546326,156.608200 174.445160,161.370499 173.754990,165.843140 
	C173.416534,168.036499 171.145309,171.050125 169.214493,171.526398 
	C167.661179,171.909561 165.304337,169.035141 163.127716,167.310730 
z"/>
<path fill="#1E1D1F" opacity="1.000000" stroke="none" 
	d="
M196.073608,142.284729 
	C202.880173,141.541565 209.623901,141.229172 215.869080,145.633087 
	C215.967896,146.302475 215.947037,146.493576 215.926163,146.684692 
	C209.946350,146.751968 203.966522,146.819244 197.474548,146.454834 
	C196.666107,144.776993 196.369858,143.530869 196.073608,142.284729 
z"/>
<path fill="#191818" opacity="1.000000" stroke="none" 
	d="
M234.957138,166.124710 
	C234.974045,166.804947 234.990967,167.485184 234.991913,168.505524 
	C229.148865,168.845612 223.321747,168.845612 216.114090,168.845612 
	C217.844055,166.722595 218.959274,165.353973 220.887451,163.971909 
	C222.546478,163.990829 223.392532,164.023193 224.198456,164.431671 
	C225.724854,165.507538 227.291397,166.207306 229.223328,166.907074 
	C229.827896,166.860626 230.067032,166.814178 230.636261,166.701477 
	C232.296600,166.465042 233.626877,166.294876 234.957138,166.124710 
z"/>
<path fill="#737476" opacity="1.000000" stroke="none" 
	d="
M235.141388,166.063461 
	C233.626877,166.294876 232.296600,166.465042 230.537720,166.495483 
	C229.692047,166.539520 229.274994,166.723297 228.857925,166.907074 
	C227.291397,166.207306 225.724854,165.507538 224.541946,164.448502 
	C225.668854,163.682938 226.412125,163.276642 227.155411,162.870361 
	C229.098389,162.658203 231.038071,162.406296 232.985275,162.245422 
	C234.818420,162.094009 237.187958,161.281647 236.457123,165.136322 
	C236.015976,165.698898 235.670807,165.850555 235.141388,166.063461 
z"/>
<path fill="#44444C" opacity="1.000000" stroke="none" 
	d="
M161.959015,149.233322 
	C161.542374,149.483521 161.125717,149.733719 160.447968,150.023956 
	C161.024078,147.588181 161.861267,145.112366 162.851517,142.319641 
	C165.712601,140.867111 168.420609,139.731476 171.128616,138.595840 
	C171.253265,138.902481 171.377930,139.209122 171.502579,139.515762 
	C168.778931,141.901245 166.055283,144.286728 163.692047,146.916595 
	C164.052444,147.160965 163.994370,147.100388 163.742432,146.753052 
	C162.980011,147.348236 162.469513,148.290771 161.959015,149.233322 
z"/>
<path fill="#8B8BA0" opacity="1.000000" stroke="none" 
	d="
M126.000259,158.349792 
	C126.205353,156.869949 126.393105,155.798752 126.580856,154.727554 
	C127.085930,154.575867 127.591003,154.424179 128.096085,154.272491 
	C129.054550,156.381577 130.013031,158.490662 131.460602,161.675964 
	C131.389053,161.655884 132.709763,162.026749 135.177795,162.719788 
	C133.025436,162.903336 132.026810,162.999649 131.026443,163.071716 
	C127.928810,163.294846 125.195465,163.082230 126.000259,158.349792 
z"/>
<path fill="#302F33" opacity="1.000000" stroke="none" 
	d="
M227.119537,162.539062 
	C226.412125,163.276642 225.668854,163.682938 224.582077,164.072388 
	C223.392532,164.023193 222.546478,163.990829 221.278931,163.944855 
	C220.757843,163.321167 220.658264,162.711090 220.302887,161.619705 
	C220.031693,160.760544 220.016312,160.382675 220.000931,160.004822 
	C222.691330,159.864914 225.381744,159.725021 228.521881,159.957916 
	C228.975571,160.521210 228.979507,160.711731 228.983444,160.902237 
	C228.350174,161.337402 227.716919,161.772568 227.119537,162.539062 
z"/>
<path fill="#191818" opacity="1.000000" stroke="none" 
	d="
M247.421997,168.689178 
	C244.278625,168.022812 241.423981,167.247925 238.293182,166.187378 
	C238.414993,165.858810 238.812973,165.815918 239.915833,165.868515 
	C241.158768,165.864105 241.696777,165.764191 242.234802,165.664291 
	C244.551743,165.509216 246.868668,165.354141 249.575470,165.226562 
	C249.213806,166.362915 248.462265,167.471771 247.421997,168.689178 
z"/>
<path fill="#44444C" opacity="1.000000" stroke="none" 
	d="
M195.734985,142.176575 
	C196.369858,143.530869 196.666107,144.776993 197.023895,146.341736 
	C195.837463,145.743698 194.589478,144.827072 193.341507,143.910446 
	C194.026459,143.296432 194.711426,142.682434 195.734985,142.176575 
z"/>
<path fill="#44444C" opacity="1.000000" stroke="none" 
	d="
M229.379074,160.965729 
	C228.979507,160.711731 228.975571,160.521210 228.962921,160.045013 
	C230.739578,159.640579 232.524948,159.521835 234.310318,159.403107 
	C234.332657,159.844925 234.355011,160.286758 234.377350,160.728577 
	C232.843140,160.828796 231.308914,160.929016 229.379074,160.965729 
z"/>
<path fill="#737476" opacity="1.000000" stroke="none" 
	d="
M242.151550,165.291260 
	C241.696777,165.764191 241.158768,165.864105 240.217636,165.859024 
	C240.135880,164.480576 240.457230,163.207138 240.778580,161.933685 
	C241.208481,162.928528 241.638397,163.923370 242.151550,165.291260 
z"/>
<path fill="#8B8BA0" opacity="1.000000" stroke="none" 
	d="
M138.435089,163.241272 
	C140.968140,163.081146 143.210602,163.081146 145.453079,163.081146 
	C145.453873,163.372849 145.454681,163.664566 145.455475,163.956268 
	C143.018494,163.771301 140.581512,163.586334 138.435089,163.241272 
z"/>
<path fill="#8B8BA0" opacity="1.000000" stroke="none" 
	d="
M143.001099,132.001831 
	C143.595825,132.747864 144.205154,133.481613 144.814484,134.215363 
	C144.284561,134.435562 143.754654,134.655762 143.224731,134.875946 
	C143.082916,134.116394 142.941116,133.356842 142.923248,132.281921 
	C143.047195,131.966553 143.015671,131.989578 143.001099,132.001831 
z"/>
<path fill="#191818" opacity="1.000000" stroke="none" 
	d="
M131.619720,133.635269 
	C132.093842,133.058121 132.876587,132.477554 134.028961,131.946075 
	C133.575165,132.540726 132.751770,133.086288 131.619720,133.635269 
z"/>
<path fill="#44444C" opacity="1.000000" stroke="none" 
	d="
M219.718506,159.971558 
	C220.016312,160.382675 220.031693,160.760544 220.046860,161.422180 
	C219.545761,161.437225 219.044891,161.168472 218.544006,160.899719 
	C218.841370,160.579239 219.138733,160.258759 219.718506,159.971558 
z"/>
<path fill="#44444C" opacity="1.000000" stroke="none" 
	d="
M216.160828,146.794586 
	C215.947037,146.493576 215.967896,146.302475 216.138763,145.865036 
	C216.611664,145.851028 216.934509,146.083344 217.257370,146.315674 
	C216.970078,146.511948 216.682785,146.708206 216.160828,146.794586 
z"/>
<path fill="#191818" opacity="1.000000" stroke="none" 
	d="
M417.435913,123.736343 
	C417.196442,123.778671 416.805603,123.581871 416.671509,123.221191 
	C417.046997,123.203957 417.165771,123.350578 417.435913,123.736343 
z"/>
<path fill="#1E1D1F" opacity="1.000000" stroke="none" 
	d="
M429.069092,171.586121 
	C428.094696,171.988098 427.094574,171.905197 426.116272,172.015656 
	C421.809113,172.501907 419.410461,171.086533 419.963745,166.285004 
	C420.088531,165.202377 419.599091,164.048981 419.525330,162.285065 
	C419.793671,156.108139 419.929016,150.574310 420.064331,145.040497 
	C423.060669,153.757065 426.057037,162.473633 429.069092,171.586121 
z"/>
<path fill="#737476" opacity="1.000000" stroke="none" 
	d="
M420.001099,144.635300 
	C419.929016,150.574310 419.793671,156.108139 419.338013,161.944550 
	C418.877441,162.155792 418.737244,162.064423 418.392883,161.826950 
	C418.106140,153.778931 418.023560,145.877029 417.927063,137.222839 
	C417.878998,136.281265 417.844879,136.091995 417.810730,135.902710 
	C417.810730,135.902710 417.864868,135.502869 417.899719,135.305573 
	C418.602325,138.148895 419.270081,141.189499 420.001099,144.635300 
z"/>
<path fill="#191818" opacity="1.000000" stroke="none" 
	d="
M372.861328,206.808655 
	C372.854645,204.394913 372.854645,202.444595 372.854645,198.724991 
	C376.008759,200.218689 378.833771,200.867065 380.435822,202.628036 
	C381.155396,203.419037 380.004639,207.168503 378.648865,208.231003 
	C377.338898,209.257629 374.153564,211.203110 372.861328,206.808655 
z"/>
<path fill="#302F33" opacity="1.000000" stroke="none" 
	d="
M409.028809,205.313843 
	C410.432678,206.164520 411.412933,206.999771 412.393158,207.834991 
	C410.819122,208.335632 409.267395,209.081543 407.661102,209.227661 
	C406.920197,209.295029 406.072571,208.189697 405.273346,207.616058 
	C406.383942,206.843506 407.494537,206.070953 409.028809,205.313843 
z"/>
<path fill="#302F33" opacity="1.000000" stroke="none" 
	d="
M411.038147,199.970734 
	C412.606079,204.329529 409.293701,202.983139 407.617645,203.026993 
	C406.854980,203.046936 406.056122,201.683975 405.273712,200.948288 
	C407.088104,200.547729 408.902466,200.147171 411.038147,199.970734 
z"/>
<path fill="#20242C" opacity="1.000000" stroke="none" 
	d="
M363.617432,202.021301 
	C361.997375,203.614365 360.295990,204.812286 357.527771,206.761322 
	C357.527771,203.365067 357.527771,201.830933 357.527771,199.053024 
	C359.871796,200.056885 361.703949,200.841522 363.617432,202.021301 
z"/>
<path fill="#1E1D1F" opacity="1.000000" stroke="none" 
	d="
M342.269226,199.770721 
	C346.399750,199.463226 348.774689,201.377533 348.027863,204.907730 
	C347.668121,206.608337 344.991852,208.286575 343.017517,208.965042 
	C342.134918,209.268326 339.214569,206.991241 339.289581,206.050339 
	C339.457764,203.941605 340.922821,201.936310 342.269226,199.770721 
z"/>
<path fill="#192F4B" opacity="1.000000" stroke="none" 
	d="
M417.709290,136.036407 
	C417.844879,136.091995 417.878998,136.281265 417.889893,136.758453 
	C417.571869,136.806412 417.485626,136.514343 417.709290,136.036407 
z"/>
<path fill="#232325" opacity="1.000000" stroke="none" 
	d="
M281.104126,207.155945 
	C278.685516,208.259476 276.480530,209.014847 273.670166,209.977600 
	C273.670166,206.007462 273.670166,203.116409 273.670166,200.249176 
	C280.648804,199.108810 282.437012,200.682846 281.104126,207.155945 
z"/>
<path fill="#44444C" opacity="1.000000" stroke="none" 
	d="
M159.481110,155.171860 
	C159.757065,154.019867 160.035538,153.138733 160.313995,152.257599 
	C160.526611,152.317581 160.739227,152.377548 160.951828,152.437531 
	C160.689529,153.513229 160.437012,154.591568 160.149185,155.660385 
	C160.121582,155.762833 159.839539,155.893875 159.737427,155.853851 
	C159.617538,155.806870 159.565231,155.587387 159.481110,155.171860 
z"/>
<path fill="#D1D2F4" opacity="1.000000" stroke="none" 
	d="
M162.320404,149.199646 
	C162.469513,148.290771 162.980011,147.348236 163.778625,146.731812 
	C163.605103,147.760620 163.143448,148.463287 162.320404,149.199646 
z"/>
<path fill="#302F33" opacity="1.000000" stroke="none" 
	d="
M229.223328,166.907074 
	C229.274994,166.723297 229.692047,166.539520 230.207642,166.561737 
	C230.067032,166.814178 229.827896,166.860626 229.223328,166.907074 
z"/>
</svg>